<?xml version="1.0" encoding="utf-8"?>
<!-- Generator: Adobe Illustrator 27.6.1, SVG Export Plug-In . SVG Version: 6.00 Build 0)  -->
<svg version="1.1" id="Layer_1" xmlns="http://www.w3.org/2000/svg" xmlns:xlink="http://www.w3.org/1999/xlink" x="0px" y="0px"
	 viewBox="0 0 20 20" style="enable-background:new 0 0 20 20;" xml:space="preserve">
<style type="text/css">
	.st0{fill:#0082FA;}
</style>
<g>
	<g>
		<path class="st0" d="M0,3.2c0.11-0.47,0.32-0.89,0.68-1.23C1.1,1.59,1.6,1.4,2.16,1.4c2.83-0.01,5.65,0,8.48,0
			c0.47,0,0.8,0.3,0.82,0.72c0.02,0.4-0.28,0.7-0.74,0.75c-0.1,0.01-0.21,0.01-0.31,0.01c-2.68,0-5.35,0-8.03,0
			c-0.1,0-0.21,0-0.31,0.01c-0.31,0.03-0.57,0.28-0.6,0.59c-0.01,0.05,0,0.1,0,0.16c0,4.71,0,9.41,0,14.12c0,0.1,0,0.21,0.04,0.31
			c0.1,0.27,0.32,0.45,0.61,0.47c0.15,0.01,0.3,0,0.45,0c4.11,0,8.23,0,12.34,0c0.43,0,0.69-0.18,0.77-0.54
			c0.02-0.1,0.02-0.21,0.02-0.31c0-2.28,0-4.56,0-6.84c0-0.12,0-0.25,0.04-0.37c0.11-0.35,0.44-0.55,0.81-0.5
			c0.33,0.04,0.6,0.34,0.62,0.68c0,0.08,0,0.16,0,0.23c0,2.26-0.02,4.52,0.01,6.78c0.02,1.18-0.74,2.09-1.73,2.29
			c-0.02,0-0.04,0.02-0.05,0.02c-4.54,0-9.09,0-13.63,0c-0.31-0.09-0.62-0.2-0.89-0.39C0.4,19.27,0.14,18.79,0,18.24
			C0,13.23,0,8.22,0,3.2z"/>
		<path class="st0" d="M20,3.16c-0.14,0.73-0.55,1.3-1.07,1.81c-3,2.98-5.98,5.97-8.96,8.96c-0.19,0.19-0.4,0.32-0.65,0.41
			C8,14.78,6.69,15.21,5.38,15.65c-0.16,0.05-0.33,0.09-0.5,0.07c-0.38-0.05-0.66-0.4-0.61-0.78c0.01-0.11,0.04-0.22,0.08-0.32
			c0.45-1.34,0.9-2.68,1.34-4.02c0.07-0.2,0.17-0.36,0.32-0.51c3.08-3.08,6.16-6.16,9.24-9.24c0.45-0.45,0.98-0.72,1.59-0.85
			c0.29,0,0.57,0,0.86,0c0.52,0.12,1,0.32,1.41,0.68c0.49,0.44,0.76,0.99,0.9,1.63C20,2.59,20,2.88,20,3.16z M18.54,2.82
			c0-0.26-0.05-0.49-0.13-0.64c-0.43-0.82-1.43-0.97-2.1-0.29c-3.04,3.03-6.08,6.07-9.12,9.11c-0.08,0.08-0.14,0.17-0.17,0.28
			c-0.26,0.78-0.52,1.57-0.78,2.35c-0.02,0.05-0.07,0.12-0.02,0.16c0.05,0.05,0.11-0.01,0.16-0.02C7.14,13.51,7.9,13.25,8.66,13
			c0.16-0.05,0.29-0.13,0.41-0.25c2.99-3,5.99-5.99,8.99-8.99c0.06-0.06,0.13-0.13,0.19-0.2C18.44,3.33,18.54,3.05,18.54,2.82z"/>
	</g>
</g>
</svg>
