<?xml version="1.0" encoding="utf-8"?>
<!-- Generator: Adobe Illustrator 27.6.1, SVG Export Plug-In . SVG Version: 6.00 Build 0)  -->
<svg version="1.1" id="Layer_1" xmlns="http://www.w3.org/2000/svg" xmlns:xlink="http://www.w3.org/1999/xlink" x="0px" y="0px"
	 viewBox="0 0 20 20" style="enable-background:new 0 0 20 20;" xml:space="preserve">
<style type="text/css">
	.st0{fill:#C70000;}
</style>
<g>
	<path class="st0" d="M16.02,10.56c0,2.05,0,4.1,0,6.15c0,0.5-0.12,0.95-0.47,1.33c-0.36,0.38-0.81,0.54-1.31,0.54
		c-2.83,0.01-5.65,0.01-8.48,0c-1.07,0-1.77-0.74-1.78-1.83c0-2.67,0-5.34,0-8.02c0-1.48,0-2.95,0-4.43c0-0.27,0-0.27-0.27-0.27
		c-0.58,0-0.58,0-0.58-0.58c0-0.3,0-0.6,0-0.9c0-0.27,0-0.27,0.27-0.27c1.25,0,2.5,0,3.75,0c0.2,0,0.34-0.05,0.47-0.2
		C7.79,1.9,7.98,1.73,8.15,1.55c0.09-0.09,0.19-0.14,0.32-0.14c1.02,0,2.04,0,3.07,0c0.12,0,0.22,0.04,0.3,0.12
		c0.2,0.21,0.41,0.4,0.61,0.61c0.09,0.1,0.2,0.14,0.33,0.14c1.27,0,2.54,0,3.81,0c0.28,0,0.28,0,0.28,0.28c0,0.42,0,0.84,0,1.26
		c0,0.15-0.05,0.22-0.21,0.21c-0.13-0.01-0.27,0.01-0.4,0c-0.18-0.02-0.25,0.05-0.24,0.24c0.01,0.5,0,1,0,1.5
		C16.02,7.37,16.02,8.97,16.02,10.56z M5.75,10.42c0,2.04,0,4.07,0,6.11c0,0.28,0,0.28,0.28,0.28c2.64,0,5.29,0,7.93,0
		c0.28,0,0.28,0,0.28-0.28c0-4.07,0-8.15,0-12.22c0-0.27,0-0.27-0.28-0.27c-2.64,0-5.29,0-7.93,0c-0.28,0-0.28,0-0.28,0.28
		C5.75,6.35,5.75,8.39,5.75,10.42z"/>
	<path class="st0" d="M9.17,10.44c0,1.48,0,2.95,0,4.43c0,0.27,0,0.27-0.28,0.27c-0.42,0-0.84-0.01-1.26,0
		c-0.16,0-0.21-0.05-0.21-0.21c0-3.01,0-6.02,0-9.03c0-0.16,0.05-0.21,0.21-0.21c0.43,0.01,0.85,0.01,1.28,0
		c0.2-0.01,0.27,0.06,0.26,0.26C9.16,7.45,9.17,8.95,9.17,10.44z"/>
	<path class="st0" d="M12.58,10.44c0,1.48,0,2.96,0,4.45c0,0.2-0.05,0.27-0.26,0.26c-0.42-0.02-0.84-0.01-1.26,0
		c-0.19,0.01-0.24-0.07-0.24-0.24c0-2.99,0-5.98,0-8.97c0-0.17,0.05-0.24,0.23-0.24c0.43,0.01,0.87,0.01,1.3,0
		c0.18,0,0.22,0.07,0.22,0.24C12.58,7.43,12.58,8.94,12.58,10.44z"/>
</g>
</svg>
